<svg width="80" height="51" viewBox="0 0 80 51" fill="none" xmlns="http://www.w3.org/2000/svg">
<path d="M16.52 37H3.8C3.53333 37 3.4 36.84 3.4 36.52V11.76C3.4 11.44 3.53333 11.28 3.8 11.28H4.96C5.25333 11.28 5.4 11.44 5.4 11.76V34.76C5.4 35 5.53333 35.12 5.8 35.12H16.52C16.84 35.12 17 35.2667 17 35.56V36.56C17 36.8533 16.84 37 16.52 37ZM29.0069 37H26.3669C24.6602 37 23.3135 36.4933 22.3269 35.48C21.3402 34.4667 20.8469 33.08 20.8469 31.32V17.08C20.8469 16.76 20.9802 16.6 21.2469 16.6H22.4069C22.7002 16.6 22.8469 16.76 22.8469 17.08V31.24C22.8469 32.4933 23.1669 33.4667 23.8069 34.16C24.4469 34.8533 25.3802 35.2 26.6069 35.2H29.2069C30.4869 35.2 31.4869 34.8667 32.2069 34.2C32.9535 33.5067 33.3269 32.5333 33.3269 31.28V17.08C33.3269 16.76 33.4735 16.6 33.7669 16.6H34.9269C35.1935 16.6 35.3269 16.76 35.3269 17.08V36.52C35.3269 36.84 35.1935 37 34.9269 37H33.7669C33.4735 37 33.3269 36.84 33.3269 36.52V34.92H33.1669C32.4735 36.3067 31.0869 37 29.0069 37ZM51.9603 37H46.9203C45.187 37 43.8136 36.4933 42.8003 35.48C41.8136 34.4667 41.3203 33.08 41.3203 31.32V16.96C41.3203 15.2 41.8136 13.8133 42.8003 12.8C43.8136 11.7867 45.187 11.28 46.9203 11.28H51.9603C53.6936 11.28 55.0536 11.7867 56.0403 12.8C57.0536 13.8133 57.5603 15.2 57.5603 16.96V18.92C57.5603 19.24 57.4136 19.4 57.1203 19.4H56.0003C55.707 19.4 55.5603 19.24 55.5603 18.92V17.04C55.5603 15.76 55.227 14.7867 54.5603 14.12C53.9203 13.4267 52.987 13.08 51.7603 13.08H47.0803C45.8536 13.08 44.9203 13.4267 44.2803 14.12C43.6403 14.8133 43.3203 15.7867 43.3203 17.04V31.24C43.3203 32.4933 43.6403 33.4667 44.2803 34.16C44.9203 34.8533 45.8536 35.2 47.0803 35.2H51.7603C52.987 35.2 53.9203 34.8667 54.5603 34.2C55.227 33.5067 55.5603 32.52 55.5603 31.24V29.36C55.5603 29.04 55.707 28.88 56.0003 28.88H57.1203C57.4136 28.88 57.5603 29.04 57.5603 29.36V31.32C57.5603 33.08 57.0536 34.4667 56.0403 35.48C55.0536 36.4933 53.6936 37 51.9603 37ZM71.64 37H68.2C66.4667 37 65.0933 36.4933 64.08 35.48C63.0933 34.4667 62.6 33.08 62.6 31.32V22.28C62.6 20.52 63.0933 19.1333 64.08 18.12C65.0933 17.1067 66.4667 16.6 68.2 16.6H71.64C73.3733 16.6 74.7467 17.1067 75.76 18.12C76.7733 19.1333 77.28 20.52 77.28 22.28V31.32C77.28 33.08 76.7733 34.4667 75.76 35.48C74.7467 36.4933 73.3733 37 71.64 37ZM68.36 35.2H71.48C72.7067 35.2 73.64 34.8667 74.28 34.2C74.9467 33.5067 75.28 32.5333 75.28 31.28V22.32C75.28 21.0667 74.9467 20.1067 74.28 19.44C73.64 18.7467 72.7067 18.4 71.48 18.4H68.36C67.1333 18.4 66.2 18.7467 65.56 19.44C64.92 20.1067 64.6 21.0667 64.6 22.32V31.28C64.6 32.5333 64.92 33.5067 65.56 34.2C66.2 34.8667 67.1333 35.2 68.36 35.2Z" fill="white"/>
<line x1="1" y1="45.5" x2="80" y2="45.5" stroke="white"/>
</svg>
